<mxfile host="Electron" agent="Mozilla/5.0 (Windows NT 10.0; Win64; x64) AppleWebKit/537.36 (KHTML, like Gecko) draw.io/27.0.9 Chrome/134.0.6998.205 Electron/35.4.0 Safari/537.36" version="27.0.9">
  <diagram name="Page-1" id="YJJ2tlMMSp8O0QS9iIE1">
    <mxGraphModel dx="786" dy="516" grid="1" gridSize="10" guides="1" tooltips="1" connect="1" arrows="1" fold="1" page="1" pageScale="1" pageWidth="850" pageHeight="1100" math="0" shadow="0">
      <root>
        <mxCell id="0" />
        <mxCell id="1" parent="0" />
        <mxCell id="pdqvYw19rvf9Fm3R-BTl-1" value="" style="rounded=0;whiteSpace=wrap;html=1;fillColor=none;strokeColor=default;dashed=1;dashPattern=1 2;" parent="1" vertex="1">
          <mxGeometry x="120" y="120" width="120" height="330" as="geometry" />
        </mxCell>
        <mxCell id="pdqvYw19rvf9Fm3R-BTl-2" value="&lt;font style=&quot;font-size: 14px;&quot;&gt;Sources&lt;/font&gt;" style="text;html=1;align=center;verticalAlign=middle;whiteSpace=wrap;rounded=0;fillColor=default;" parent="1" vertex="1">
          <mxGeometry x="150" y="100" width="60" height="30" as="geometry" />
        </mxCell>
        <mxCell id="pdqvYw19rvf9Fm3R-BTl-10" style="edgeStyle=orthogonalEdgeStyle;rounded=0;orthogonalLoop=1;jettySize=auto;html=1;entryX=0;entryY=0.25;entryDx=0;entryDy=0;" parent="1" source="pdqvYw19rvf9Fm3R-BTl-3" target="pdqvYw19rvf9Fm3R-BTl-7" edge="1">
          <mxGeometry relative="1" as="geometry" />
        </mxCell>
        <mxCell id="pdqvYw19rvf9Fm3R-BTl-12" style="edgeStyle=orthogonalEdgeStyle;rounded=0;orthogonalLoop=1;jettySize=auto;html=1;" parent="1" source="pdqvYw19rvf9Fm3R-BTl-3" target="pdqvYw19rvf9Fm3R-BTl-8" edge="1">
          <mxGeometry relative="1" as="geometry" />
        </mxCell>
        <mxCell id="pdqvYw19rvf9Fm3R-BTl-3" value="CRM" style="image;aspect=fixed;html=1;points=[];align=center;fontSize=12;image=img/lib/azure2/general/Folder_Blank.svg;" parent="1" vertex="1">
          <mxGeometry x="155" y="189.71" width="50" height="40.58" as="geometry" />
        </mxCell>
        <mxCell id="pdqvYw19rvf9Fm3R-BTl-17" style="edgeStyle=orthogonalEdgeStyle;rounded=0;orthogonalLoop=1;jettySize=auto;html=1;entryX=0;entryY=0.5;entryDx=0;entryDy=0;" parent="1" source="pdqvYw19rvf9Fm3R-BTl-4" target="pdqvYw19rvf9Fm3R-BTl-14" edge="1">
          <mxGeometry relative="1" as="geometry" />
        </mxCell>
        <mxCell id="pdqvYw19rvf9Fm3R-BTl-18" style="edgeStyle=orthogonalEdgeStyle;rounded=0;orthogonalLoop=1;jettySize=auto;html=1;" parent="1" source="pdqvYw19rvf9Fm3R-BTl-4" target="pdqvYw19rvf9Fm3R-BTl-15" edge="1">
          <mxGeometry relative="1" as="geometry" />
        </mxCell>
        <mxCell id="pdqvYw19rvf9Fm3R-BTl-19" style="edgeStyle=orthogonalEdgeStyle;rounded=0;orthogonalLoop=1;jettySize=auto;html=1;entryX=0;entryY=0.75;entryDx=0;entryDy=0;" parent="1" source="pdqvYw19rvf9Fm3R-BTl-4" target="pdqvYw19rvf9Fm3R-BTl-16" edge="1">
          <mxGeometry relative="1" as="geometry" />
        </mxCell>
        <mxCell id="pdqvYw19rvf9Fm3R-BTl-4" value="ERP" style="image;aspect=fixed;html=1;points=[];align=center;fontSize=12;image=img/lib/azure2/general/Folder_Blank.svg;" parent="1" vertex="1">
          <mxGeometry x="150" y="330" width="49.29" height="40" as="geometry" />
        </mxCell>
        <mxCell id="pdqvYw19rvf9Fm3R-BTl-5" value="" style="rounded=1;whiteSpace=wrap;html=1;fillColor=none;strokeColor=#d79b00;" parent="1" vertex="1">
          <mxGeometry x="320" y="130" width="130" height="320" as="geometry" />
        </mxCell>
        <mxCell id="pdqvYw19rvf9Fm3R-BTl-6" value="Bronze Layer" style="text;html=1;align=center;verticalAlign=middle;whiteSpace=wrap;rounded=0;fillColor=#ffe6cc;strokeColor=#d79b00;" parent="1" vertex="1">
          <mxGeometry x="345" y="90" width="80" height="30" as="geometry" />
        </mxCell>
        <mxCell id="33AM4hfmT-JvoUvRpgQO-10" style="edgeStyle=orthogonalEdgeStyle;rounded=0;orthogonalLoop=1;jettySize=auto;html=1;exitX=1;exitY=0.5;exitDx=0;exitDy=0;entryX=0;entryY=0.5;entryDx=0;entryDy=0;" parent="1" source="pdqvYw19rvf9Fm3R-BTl-7" target="33AM4hfmT-JvoUvRpgQO-3" edge="1">
          <mxGeometry relative="1" as="geometry" />
        </mxCell>
        <mxCell id="pdqvYw19rvf9Fm3R-BTl-7" value="crm_sales_details" style="text;html=1;align=center;verticalAlign=middle;whiteSpace=wrap;rounded=1;fillColor=#ffe6cc;strokeColor=#d79b00;" parent="1" vertex="1">
          <mxGeometry x="325" y="150" width="120" height="30" as="geometry" />
        </mxCell>
        <mxCell id="33AM4hfmT-JvoUvRpgQO-11" style="edgeStyle=orthogonalEdgeStyle;rounded=0;orthogonalLoop=1;jettySize=auto;html=1;entryX=0;entryY=0.5;entryDx=0;entryDy=0;" parent="1" source="pdqvYw19rvf9Fm3R-BTl-8" target="33AM4hfmT-JvoUvRpgQO-4" edge="1">
          <mxGeometry relative="1" as="geometry" />
        </mxCell>
        <mxCell id="pdqvYw19rvf9Fm3R-BTl-8" value="crm_cust_info" style="text;html=1;align=center;verticalAlign=middle;whiteSpace=wrap;rounded=1;fillColor=#ffe6cc;strokeColor=#d79b00;" parent="1" vertex="1">
          <mxGeometry x="325" y="195" width="120" height="30" as="geometry" />
        </mxCell>
        <mxCell id="33AM4hfmT-JvoUvRpgQO-12" style="edgeStyle=orthogonalEdgeStyle;rounded=0;orthogonalLoop=1;jettySize=auto;html=1;entryX=0;entryY=0.5;entryDx=0;entryDy=0;" parent="1" source="pdqvYw19rvf9Fm3R-BTl-9" target="33AM4hfmT-JvoUvRpgQO-5" edge="1">
          <mxGeometry relative="1" as="geometry" />
        </mxCell>
        <mxCell id="pdqvYw19rvf9Fm3R-BTl-9" value="crm_prd_info" style="text;html=1;align=center;verticalAlign=middle;whiteSpace=wrap;rounded=1;fillColor=#ffe6cc;strokeColor=#d79b00;" parent="1" vertex="1">
          <mxGeometry x="325" y="240" width="120" height="30" as="geometry" />
        </mxCell>
        <mxCell id="pdqvYw19rvf9Fm3R-BTl-13" style="edgeStyle=orthogonalEdgeStyle;rounded=0;orthogonalLoop=1;jettySize=auto;html=1;entryX=0.046;entryY=0.396;entryDx=0;entryDy=0;entryPerimeter=0;" parent="1" source="pdqvYw19rvf9Fm3R-BTl-3" target="pdqvYw19rvf9Fm3R-BTl-5" edge="1">
          <mxGeometry relative="1" as="geometry" />
        </mxCell>
        <mxCell id="33AM4hfmT-JvoUvRpgQO-13" style="edgeStyle=orthogonalEdgeStyle;rounded=0;orthogonalLoop=1;jettySize=auto;html=1;" parent="1" source="pdqvYw19rvf9Fm3R-BTl-14" target="33AM4hfmT-JvoUvRpgQO-6" edge="1">
          <mxGeometry relative="1" as="geometry" />
        </mxCell>
        <mxCell id="pdqvYw19rvf9Fm3R-BTl-14" value="erp_cust_az12" style="text;html=1;align=center;verticalAlign=middle;whiteSpace=wrap;rounded=1;fillColor=#ffe6cc;strokeColor=#d79b00;" parent="1" vertex="1">
          <mxGeometry x="325" y="300" width="120" height="30" as="geometry" />
        </mxCell>
        <mxCell id="pdqvYw19rvf9Fm3R-BTl-15" value="erp_loc_a101" style="text;html=1;align=center;verticalAlign=middle;whiteSpace=wrap;rounded=1;fillColor=#ffe6cc;strokeColor=#d79b00;" parent="1" vertex="1">
          <mxGeometry x="325" y="345" width="120" height="30" as="geometry" />
        </mxCell>
        <mxCell id="pdqvYw19rvf9Fm3R-BTl-16" value="erp_px_cat_g1v2" style="text;html=1;align=center;verticalAlign=middle;whiteSpace=wrap;rounded=1;fillColor=#ffe6cc;strokeColor=#d79b00;" parent="1" vertex="1">
          <mxGeometry x="325" y="390" width="120" height="30" as="geometry" />
        </mxCell>
        <mxCell id="33AM4hfmT-JvoUvRpgQO-1" value="" style="rounded=1;whiteSpace=wrap;html=1;" parent="1" vertex="1">
          <mxGeometry x="500" y="130" width="130" height="320" as="geometry" />
        </mxCell>
        <mxCell id="33AM4hfmT-JvoUvRpgQO-2" value="Silver Layer" style="text;html=1;align=center;verticalAlign=middle;whiteSpace=wrap;rounded=0;fillColor=#f5f5f5;strokeColor=#666666;fontColor=#333333;" parent="1" vertex="1">
          <mxGeometry x="525" y="90" width="80" height="30" as="geometry" />
        </mxCell>
        <mxCell id="33AM4hfmT-JvoUvRpgQO-3" value="crm_sales_details" style="text;html=1;align=center;verticalAlign=middle;whiteSpace=wrap;rounded=1;fillColor=#f5f5f5;strokeColor=#666666;fontColor=#333333;" parent="1" vertex="1">
          <mxGeometry x="505" y="150" width="120" height="30" as="geometry" />
        </mxCell>
        <mxCell id="33AM4hfmT-JvoUvRpgQO-4" value="crm_cust_info" style="text;html=1;align=center;verticalAlign=middle;whiteSpace=wrap;rounded=1;fillColor=#f5f5f5;strokeColor=#666666;fontColor=#333333;" parent="1" vertex="1">
          <mxGeometry x="505" y="195" width="120" height="30" as="geometry" />
        </mxCell>
        <mxCell id="33AM4hfmT-JvoUvRpgQO-5" value="crm_prd_info" style="text;html=1;align=center;verticalAlign=middle;whiteSpace=wrap;rounded=1;fillColor=#f5f5f5;strokeColor=#666666;fontColor=#333333;" parent="1" vertex="1">
          <mxGeometry x="505" y="240" width="120" height="30" as="geometry" />
        </mxCell>
        <mxCell id="33AM4hfmT-JvoUvRpgQO-6" value="erp_cust_az12" style="text;html=1;align=center;verticalAlign=middle;whiteSpace=wrap;rounded=1;fillColor=#f5f5f5;strokeColor=#666666;fontColor=#333333;" parent="1" vertex="1">
          <mxGeometry x="505" y="300" width="120" height="30" as="geometry" />
        </mxCell>
        <mxCell id="33AM4hfmT-JvoUvRpgQO-7" value="erp_loc_a101" style="text;html=1;align=center;verticalAlign=middle;whiteSpace=wrap;rounded=1;fillColor=#f5f5f5;strokeColor=#666666;fontColor=#333333;" parent="1" vertex="1">
          <mxGeometry x="505" y="345" width="120" height="30" as="geometry" />
        </mxCell>
        <mxCell id="33AM4hfmT-JvoUvRpgQO-8" value="erp_px_cat_g1v2" style="text;html=1;align=center;verticalAlign=middle;whiteSpace=wrap;rounded=1;fillColor=#f5f5f5;strokeColor=#666666;fontColor=#333333;" parent="1" vertex="1">
          <mxGeometry x="505" y="390" width="120" height="30" as="geometry" />
        </mxCell>
        <mxCell id="33AM4hfmT-JvoUvRpgQO-14" style="edgeStyle=orthogonalEdgeStyle;rounded=0;orthogonalLoop=1;jettySize=auto;html=1;entryX=0.031;entryY=0.721;entryDx=0;entryDy=0;entryPerimeter=0;" parent="1" source="pdqvYw19rvf9Fm3R-BTl-15" target="33AM4hfmT-JvoUvRpgQO-1" edge="1">
          <mxGeometry relative="1" as="geometry" />
        </mxCell>
        <mxCell id="33AM4hfmT-JvoUvRpgQO-15" style="edgeStyle=orthogonalEdgeStyle;rounded=0;orthogonalLoop=1;jettySize=auto;html=1;entryX=0;entryY=0.86;entryDx=0;entryDy=0;entryPerimeter=0;" parent="1" source="pdqvYw19rvf9Fm3R-BTl-16" target="33AM4hfmT-JvoUvRpgQO-1" edge="1">
          <mxGeometry relative="1" as="geometry" />
        </mxCell>
        <mxCell id="-Fyzj1tyTnhNFzje9htu-1" value="" style="rounded=1;whiteSpace=wrap;html=1;" vertex="1" parent="1">
          <mxGeometry x="695" y="130" width="130" height="320" as="geometry" />
        </mxCell>
        <mxCell id="-Fyzj1tyTnhNFzje9htu-2" value="Gold Layer" style="text;html=1;align=center;verticalAlign=middle;whiteSpace=wrap;rounded=0;fillColor=#fff2cc;strokeColor=#d6b656;" vertex="1" parent="1">
          <mxGeometry x="715" y="90" width="80" height="30" as="geometry" />
        </mxCell>
        <mxCell id="-Fyzj1tyTnhNFzje9htu-3" value="fact_sales" style="text;html=1;align=center;verticalAlign=middle;whiteSpace=wrap;rounded=1;fillColor=#fff2cc;strokeColor=#d6b656;" vertex="1" parent="1">
          <mxGeometry x="700" y="150" width="120" height="30" as="geometry" />
        </mxCell>
        <mxCell id="-Fyzj1tyTnhNFzje9htu-4" value="dim_customers" style="text;html=1;align=center;verticalAlign=middle;whiteSpace=wrap;rounded=1;fillColor=#fff2cc;strokeColor=#d6b656;" vertex="1" parent="1">
          <mxGeometry x="700" y="225" width="120" height="30" as="geometry" />
        </mxCell>
        <mxCell id="-Fyzj1tyTnhNFzje9htu-5" value="dim_products" style="text;html=1;align=center;verticalAlign=middle;whiteSpace=wrap;rounded=1;fillColor=#fff2cc;strokeColor=#d6b656;" vertex="1" parent="1">
          <mxGeometry x="700" y="310" width="120" height="30" as="geometry" />
        </mxCell>
        <mxCell id="-Fyzj1tyTnhNFzje9htu-11" value="" style="endArrow=classic;html=1;rounded=0;entryX=0.061;entryY=0.556;entryDx=0;entryDy=0;entryPerimeter=0;" edge="1" parent="1" source="33AM4hfmT-JvoUvRpgQO-3" target="-Fyzj1tyTnhNFzje9htu-3">
          <mxGeometry width="50" height="50" relative="1" as="geometry">
            <mxPoint x="640" y="170" as="sourcePoint" />
            <mxPoint x="580" y="220" as="targetPoint" />
          </mxGeometry>
        </mxCell>
        <mxCell id="-Fyzj1tyTnhNFzje9htu-12" value="" style="endArrow=classic;html=1;rounded=0;entryX=0.072;entryY=0.744;entryDx=0;entryDy=0;entryPerimeter=0;jumpStyle=gap;" edge="1" parent="1" source="33AM4hfmT-JvoUvRpgQO-4" target="-Fyzj1tyTnhNFzje9htu-4">
          <mxGeometry width="50" height="50" relative="1" as="geometry">
            <mxPoint x="650" y="160" as="sourcePoint" />
            <mxPoint x="732" y="161" as="targetPoint" />
          </mxGeometry>
        </mxCell>
        <mxCell id="-Fyzj1tyTnhNFzje9htu-13" value="" style="endArrow=classic;html=1;rounded=0;entryX=0;entryY=0.5;entryDx=0;entryDy=0;exitX=1;exitY=0.5;exitDx=0;exitDy=0;jumpStyle=gap;" edge="1" parent="1" source="33AM4hfmT-JvoUvRpgQO-6" target="-Fyzj1tyTnhNFzje9htu-4">
          <mxGeometry width="50" height="50" relative="1" as="geometry">
            <mxPoint x="670" y="250" as="sourcePoint" />
            <mxPoint x="749" y="287" as="targetPoint" />
          </mxGeometry>
        </mxCell>
        <mxCell id="-Fyzj1tyTnhNFzje9htu-14" value="" style="endArrow=classic;html=1;rounded=0;entryX=0;entryY=0.75;entryDx=0;entryDy=0;exitX=1;exitY=0.5;exitDx=0;exitDy=0;jumpStyle=gap;" edge="1" parent="1" source="33AM4hfmT-JvoUvRpgQO-7" target="-Fyzj1tyTnhNFzje9htu-4">
          <mxGeometry width="50" height="50" relative="1" as="geometry">
            <mxPoint x="650" y="355" as="sourcePoint" />
            <mxPoint x="725" y="280" as="targetPoint" />
          </mxGeometry>
        </mxCell>
        <mxCell id="-Fyzj1tyTnhNFzje9htu-15" value="" style="endArrow=classic;html=1;rounded=0;entryX=0.061;entryY=0.511;entryDx=0;entryDy=0;exitX=0.949;exitY=0.402;exitDx=0;exitDy=0;exitPerimeter=0;entryPerimeter=0;jumpStyle=gap;" edge="1" parent="1" source="33AM4hfmT-JvoUvRpgQO-1" target="-Fyzj1tyTnhNFzje9htu-5">
          <mxGeometry width="50" height="50" relative="1" as="geometry">
            <mxPoint x="660" y="365" as="sourcePoint" />
            <mxPoint x="735" y="290" as="targetPoint" />
          </mxGeometry>
        </mxCell>
        <mxCell id="-Fyzj1tyTnhNFzje9htu-16" value="" style="endArrow=classic;html=1;rounded=0;entryX=0;entryY=0.75;entryDx=0;entryDy=0;exitX=0.938;exitY=0.86;exitDx=0;exitDy=0;exitPerimeter=0;jumpStyle=gap;" edge="1" parent="1" source="33AM4hfmT-JvoUvRpgQO-1" target="-Fyzj1tyTnhNFzje9htu-5">
          <mxGeometry width="50" height="50" relative="1" as="geometry">
            <mxPoint x="660" y="425" as="sourcePoint" />
            <mxPoint x="735" y="350" as="targetPoint" />
          </mxGeometry>
        </mxCell>
      </root>
    </mxGraphModel>
  </diagram>
</mxfile>
